<?xml version="1.0" encoding="utf-8"?>
<!-- Generator: Adobe Illustrator 19.1.0, SVG Export Plug-In . SVG Version: 6.00 Build 0)  -->
<svg version="1.1" xmlns="http://www.w3.org/2000/svg" xmlns:xlink="http://www.w3.org/1999/xlink" x="0px" y="0px"
	 viewBox="0 0 800 600" style="enable-background:new 0 0 800 600;" xml:space="preserve">
<style type="text/css">
	.st0{clip-path:url(#SVGID_2_);fill:#FFFFFF;}
	.st1{clip-path:url(#SVGID_2_);fill:#006233;}
	.st2{clip-path:url(#SVGID_2_);fill:#D21034;}
	.st3{font-family:'Roboto-Regular';}
	.st4{font-size:14px;}
</style>
<g id="Algeria">
	<g>
		<defs>
			<path id="SVGID_1_" d="M582.284,35.087l0.555,1.745l0.095,1.634l-2.485,1.518l-1.643,0.874l-1.961,4.186l-3.65,2.844
				l-0.608,0.857l0.031,0.776l2.47,1.286l0.822,1.218l0.388,1.632l-1.104,5.818l-0.696,4.464l-0.909,5.834l0.036,2.219l0.942,2.661
				l0.924,2.074l0.288,2.341l-0.331,5.757l1.142,3.321l0.904,3.069l-2.159,3.816l-0.927,3.36l-0.583,4.803l-0.239,3.023
				l-1.389,2.794l-1.823,2.619l-2.046,1.627l-2.529,1.397l-2.921,1.853l-2.359,4.937l-5.101,4.096l-1.068,1.406l-0.48,3.284
				l0.121,4.541l0.898,3.606l2.449,5.32l2.146,5.843l0.583,2.937l0.824,1.108l3.011,1.907l5.214,2.595l0.97,1.053l2.588,4.012
				l2.452,7.173l0.768,4.743l4.777,3.762l4.41,3.465l4.236,3.042l4.598,3.298l0.66,1.019l1.533,6.975l1.522,6.915l1.676,7.598
				l1.679,7.599l1.982,8.922l1.124,5.056l1.366,6.119l1.597,7.152l-2.57,1.516l-2.911,1.938l2.123,3.674l4.079,5.965l2.47,4.804
				l0.855,2.089l1.925,5.949l1.561,5.756l0.406,1.861l0.575,4.421l-0.708,12.136l1.119,15.352l1.52,7.624l-2.385,6.871l-2.043,6.544
				l0.131,3.281l1.127,5.129l1.096,3.784l1.507,1.99l-0.295,6.357l-0.626,2.306l-4.585,3.322l-5.088,3.05l-1.407,2.573l-0.408,2.868
				l0.68,2.327l3.496,5.148l5.252,7.718l5.773,8.462l0.483,2.126l0.239,5.994l2.403,7.518l2.606,3.282l0.978,2.45l1.838,1.747
				l1.843,1.282l1.132,0.154l6.497-2.044l11.095,3.371l10.5,3.435l0.77,0.675l2.295,4.332l3.753,7.072l2.788,5.649l2.493,5.048
				l-13.613,8.692l-13.611,8.674l-13.613,8.653l-13.613,8.633l-13.611,8.615l-13.611,8.595l-13.614,8.577l-13.613,8.559
				l-9.028,5.667l-5.74,4.993l-7.203,6.252l-6.8,6.201l-5.353,4.874l-6.931,6.306l-3.489,3.17l-7.73,7.013l-2.321,1.245
				l-10.243,2.07l-9.393,1.896l-8.677,1.752l-5.93,1.197l-5.732,1.155l-8.346,1.633l-5.958,1.165l-6.433,1.256l-0.996,0.213
				l-1.168,0.05l-0.868-0.049l-1.774-0.688l-2.149-1.648l-1.432-0.837l-0.359-1.298l0.837-1.717l1.035-1.55l0.398-1.215l0.716-0.924
				l0.914-0.753l0.039-1.062l-0.757-1.736l-0.667-2.407l0.028-4.381l0.018-1.456l0.008-0.526l-1.93-1.681l-3.622-1.845l-3.332-1.094
				l-1.52-0.375l-3.684-0.653l-5.088-1.171l-1.789-0.803l-3.294-4.076l-1.617-1.044l-7.637-0.694l-2.534-0.673l-2.082-0.967
				l-1.782-1.304l-1.001-2.244l-0.298-1.828l-0.667-0.871l-8.423-4.412l-2.138-1.501l-1.135-1.402l-0.044-2.066l0.228-2.537
				l-0.357-2.254l-0.359-1.113l-3.84-2.676l-8.61-6.006l-8.608-6.015l-8.608-6.025l-8.61-6.032l-8.607-6.042l-8.609-6.053
				l-8.609-6.06l-8.607-6.071l-8.609-6.082l-8.609-6.089l-8.61-6.102l-8.607-6.11l-8.609-6.121l-8.609-6.131l-8.607-6.141
				l-8.61-6.151l-7.273-5.207l-8.034-5.508l-5.965-4.036l-5.927-4.018l-6.36-4.318l-4.142-2.682l-4.943-3.205l-4.943-3.208
				l-4.944-3.211l-4.943-3.215l-4.943-3.219l-4.944-3.219l-4.943-3.224l-4.943-3.227l-4.944-3.23l-4.944-3.233l-4.943-3.236
				l-4.943-3.239l-4.944-3.243l-4.943-3.246l-4.943-3.249l-4.943-3.252v-6.016v-4.903v-7.21v-6.268v-6.282v-4.327v-4.511l0.13-2.046
				l0.486-0.871l2.67-1.47l4.181-3.352l1.547-1.494l1.979-1.505l6.999-4.545l1.448-1.268l6.8-5.239l1.592-0.771l3.651-0.511
				l1.526-0.984l2.049-2.094l3.019-2.41l1.964-1.135l0.467-0.209l1.249-0.169l6.292,0.71l2.64,0.534l3.149,0.452l0.988-0.305
				l0.843-0.749l1.186-1.685l0.259-1.992l0.073-1.74l0.185-0.764l0.556-0.339l1.37,0.128l1.841,0.236l3.754-0.072l1.269-0.249
				l4.264-0.371l6.028-1.14l4.776-1.476l3.799-1.176l4.078-3.072l2.984-3.251l3.107-4.852l2.462-4.214l4.988-2.642l4.177-1.592
				l2.378-0.631l5.423-2.23l4.576-3.369l4.296-3.168l3.294-0.418l4.155-0.526l0.925-0.596l1.049-1.126l0.063-1.979l-1.262-1.393
				l-1.516-0.734l-1.073-0.807l-1.073-0.146l-0.567-0.954l0.316-1.764l0.164-1.634l0.683-1.622l-0.191-2.307l-1.069-2.308
				l-0.327-1.659l0.076-1.642l0.524-1.292l1.54-0.849l1.785-0.324l2.514,0.41l4.332-0.546l11.104-3.992l0.766-1.23l0.712-2.766
				l0.796-2.424l1.147-0.812l0.625-0.181l3.702-0.65l5.241-0.924l1.968-0.133l5.708,0.267l4.165,0.195l6.725,0.317l4.78,0.161
				l4.156,0.145l5.302,0.181l1.299-0.562v-1.771l-0.951-3.296l0.572-2.057l2.043-1.907l2.552-2.143l-1.196-2.605l-2.029-1.745
				l-2.843-2.087l-1.466-0.861l-2.572-2.533l-1.577-2.89l-1.07-6.111l-1.955-3.429l-1.422-4.233l1.26-7.779l-1.885-4.717
				l-0.293-2.045l-0.015-2.405l0.579-4.165l-0.375-5.87l-2.231-6.075l1.05-2.072l0.488-1.072l-0.162-0.922l-2.028-1.937
				l-0.869-1.597l0.453-1.505l1.058-2.182l-0.09-0.914l-3.294-2.665l-5.544-4.317l-1.551-1.883l-0.759-2.379l5.306,0.612
				l2.747-0.294l6.3-2.844l4.992-3.844l3.888-1.963l3.43-4.223l3.093-2.673l4.474-2.883l12.916-6.229l1.981-0.054l4.249,1.424
				l3.704-0.443l2.529-2.187l2.726-5.259l4.22-3.214l5.329-3.226l7.252-3.077l4.754-2.842l7.506-2.462l18.855-1.564l9.683-1.393
				l6.585,0.314l6.654-4.509l3.322-1.49l14.396-0.348l6.795-3.306l25.738-0.005l3.147,1.11l3.091,1.777l5.263,4.287l2.624,0.932
				l3.396-0.887l7.909-4.056l8.918-2.114l4.847-2.424l2.069-3.53l4.172-1.302l2.349,2.713l9.244,2.738l5.676-0.783l2.498-0.824
				L546.211,30l5.997,1.086l4.608,1.952l4.834,3.913l3.124,0.783l5.696-1.767L582.284,35.087z"/>
		</defs>
		<clipPath id="SVGID_2_">
			<use xlink:href="#SVGID_1_"  style="overflow:visible;"/>
		</clipPath>
		<path class="st0" d="M27,26.667h820v546.667H27V26.667z"/>
		<path class="st1" d="M27,26.667h410v546.667H27V26.667z"/>
		<path class="st2" d="M555.444,231.667c-37.74-65.367-121.323-87.763-186.69-50.023s-87.763,121.323-50.023,186.69
			s121.323,87.763,186.69,50.023c20.776-11.995,38.029-29.248,50.023-50.023c-37.74,47.137-106.545,54.754-153.682,17.015
			s-54.754-106.545-17.015-153.682s106.545-54.754,153.682-17.015C544.71,219.68,550.416,225.386,555.444,231.667 M560,300
			l-123-40.089l76.533,104.778V235.311L437,340.089L560,300z"/>
		<use xlink:href="#SVGID_1_"  style="overflow:visible;fill:none;stroke:#000000;stroke-width:0.5;stroke-miterlimit:10;"/>
	</g>
</g>
<g id="Copyright">
	<text transform="matrix(1 0 0 1 681.6426 577.5916)" class="st3 st4">© Vemaps.com</text>
</g>
</svg>
